G04 #@! TF.GenerationSoftware,KiCad,Pcbnew,(5.1.9)-1*
G04 #@! TF.CreationDate,2021-05-11T22:08:25+03:00*
G04 #@! TF.ProjectId,VariablePS,56617269-6162-46c6-9550-532e6b696361,1.0*
G04 #@! TF.SameCoordinates,Original*
G04 #@! TF.FileFunction,Legend,Top*
G04 #@! TF.FilePolarity,Positive*
%FSLAX46Y46*%
G04 Gerber Fmt 4.6, Leading zero omitted, Abs format (unit mm)*
G04 Created by KiCad (PCBNEW (5.1.9)-1) date 2021-05-11 22:08:25*
%MOMM*%
%LPD*%
G01*
G04 APERTURE LIST*
%ADD10C,0.300000*%
%ADD11C,0.120000*%
G04 APERTURE END LIST*
D10*
X83557142Y-55228571D02*
X84057142Y-56728571D01*
X84557142Y-55228571D01*
X85057142Y-56728571D02*
X85057142Y-55228571D01*
X85771428Y-56728571D02*
X85771428Y-55228571D01*
X86628571Y-56728571D01*
X86628571Y-55228571D01*
X84057142Y-63850000D02*
X83914285Y-63778571D01*
X83700000Y-63778571D01*
X83485714Y-63850000D01*
X83342857Y-63992857D01*
X83271428Y-64135714D01*
X83200000Y-64421428D01*
X83200000Y-64635714D01*
X83271428Y-64921428D01*
X83342857Y-65064285D01*
X83485714Y-65207142D01*
X83700000Y-65278571D01*
X83842857Y-65278571D01*
X84057142Y-65207142D01*
X84128571Y-65135714D01*
X84128571Y-64635714D01*
X83842857Y-64635714D01*
X84771428Y-65278571D02*
X84771428Y-63778571D01*
X85628571Y-65278571D01*
X85628571Y-63778571D01*
X86342857Y-65278571D02*
X86342857Y-63778571D01*
X86700000Y-63778571D01*
X86914285Y-63850000D01*
X87057142Y-63992857D01*
X87128571Y-64135714D01*
X87200000Y-64421428D01*
X87200000Y-64635714D01*
X87128571Y-64921428D01*
X87057142Y-65064285D01*
X86914285Y-65207142D01*
X86700000Y-65278571D01*
X86342857Y-65278571D01*
X132807142Y-52978571D02*
X133307142Y-54478571D01*
X133807142Y-52978571D01*
X134592857Y-52978571D02*
X134878571Y-52978571D01*
X135021428Y-53050000D01*
X135164285Y-53192857D01*
X135235714Y-53478571D01*
X135235714Y-53978571D01*
X135164285Y-54264285D01*
X135021428Y-54407142D01*
X134878571Y-54478571D01*
X134592857Y-54478571D01*
X134450000Y-54407142D01*
X134307142Y-54264285D01*
X134235714Y-53978571D01*
X134235714Y-53478571D01*
X134307142Y-53192857D01*
X134450000Y-53050000D01*
X134592857Y-52978571D01*
X135878571Y-52978571D02*
X135878571Y-54192857D01*
X135950000Y-54335714D01*
X136021428Y-54407142D01*
X136164285Y-54478571D01*
X136450000Y-54478571D01*
X136592857Y-54407142D01*
X136664285Y-54335714D01*
X136735714Y-54192857D01*
X136735714Y-52978571D01*
X137235714Y-52978571D02*
X138092857Y-52978571D01*
X137664285Y-54478571D02*
X137664285Y-52978571D01*
X134307142Y-66050000D02*
X134164285Y-65978571D01*
X133950000Y-65978571D01*
X133735714Y-66050000D01*
X133592857Y-66192857D01*
X133521428Y-66335714D01*
X133450000Y-66621428D01*
X133450000Y-66835714D01*
X133521428Y-67121428D01*
X133592857Y-67264285D01*
X133735714Y-67407142D01*
X133950000Y-67478571D01*
X134092857Y-67478571D01*
X134307142Y-67407142D01*
X134378571Y-67335714D01*
X134378571Y-66835714D01*
X134092857Y-66835714D01*
X135021428Y-67478571D02*
X135021428Y-65978571D01*
X135878571Y-67478571D01*
X135878571Y-65978571D01*
X136592857Y-67478571D02*
X136592857Y-65978571D01*
X136950000Y-65978571D01*
X137164285Y-66050000D01*
X137307142Y-66192857D01*
X137378571Y-66335714D01*
X137450000Y-66621428D01*
X137450000Y-66835714D01*
X137378571Y-67121428D01*
X137307142Y-67264285D01*
X137164285Y-67407142D01*
X136950000Y-67478571D01*
X136592857Y-67478571D01*
D11*
X108997000Y-76423000D02*
X108997000Y-71382000D01*
X119038000Y-76423000D02*
X119038000Y-71382000D01*
X108997000Y-71382000D02*
X112946000Y-71382000D01*
X115091000Y-71382000D02*
X119038000Y-71382000D01*
X117943000Y-76423000D02*
X119038000Y-76423000D01*
X108997000Y-76423000D02*
X110092000Y-76423000D01*
X112944000Y-76423000D02*
X115093000Y-76423000D01*
X112398000Y-75065000D02*
X112398000Y-71382000D01*
X115638000Y-75065000D02*
X115638000Y-71382000D01*
X112944000Y-76423000D02*
X115093000Y-76423000D01*
X112398000Y-71382000D02*
X112946000Y-71382000D01*
X115091000Y-71382000D02*
X115638000Y-71382000D01*
X105030000Y-62720000D02*
X94790000Y-62720000D01*
X105030000Y-78610000D02*
X94790000Y-78610000D01*
X105030000Y-78610000D02*
X105030000Y-62720000D01*
X94790000Y-78610000D02*
X94790000Y-62720000D01*
X102450000Y-62720000D02*
X102450000Y-60180000D01*
X99910000Y-62720000D02*
X99910000Y-60180000D01*
X97370000Y-62720000D02*
X97370000Y-60180000D01*
X126480000Y-76312000D02*
G75*
G03*
X126480000Y-76312000I-1500000J0D01*
G01*
X126480000Y-44288000D02*
G75*
G03*
X126480000Y-44288000I-1500000J0D01*
G01*
X101334000Y-44288000D02*
G75*
G03*
X101334000Y-44288000I-1500000J0D01*
G01*
X106846000Y-67390000D02*
X109586000Y-67390000D01*
X109586000Y-67390000D02*
X109586000Y-60850000D01*
X109586000Y-60850000D02*
X106846000Y-60850000D01*
X106846000Y-60850000D02*
X106846000Y-67390000D01*
X108216000Y-68160000D02*
X108216000Y-67390000D01*
X108216000Y-60080000D02*
X108216000Y-60850000D01*
X121570000Y-60850000D02*
X118830000Y-60850000D01*
X118830000Y-60850000D02*
X118830000Y-67390000D01*
X118830000Y-67390000D02*
X121570000Y-67390000D01*
X121570000Y-67390000D02*
X121570000Y-60850000D01*
X120200000Y-60080000D02*
X120200000Y-60850000D01*
X120200000Y-68160000D02*
X120200000Y-67390000D01*
X113570000Y-60850000D02*
X110830000Y-60850000D01*
X110830000Y-60850000D02*
X110830000Y-67390000D01*
X110830000Y-67390000D02*
X113570000Y-67390000D01*
X113570000Y-67390000D02*
X113570000Y-60850000D01*
X112200000Y-60080000D02*
X112200000Y-60850000D01*
X112200000Y-68160000D02*
X112200000Y-67390000D01*
X117570000Y-60850000D02*
X114830000Y-60850000D01*
X114830000Y-60850000D02*
X114830000Y-67390000D01*
X114830000Y-67390000D02*
X117570000Y-67390000D01*
X117570000Y-67390000D02*
X117570000Y-60850000D01*
X116200000Y-60080000D02*
X116200000Y-60850000D01*
X116200000Y-68160000D02*
X116200000Y-67390000D01*
X116150000Y-54528000D02*
X116150000Y-51868000D01*
X113550000Y-54528000D02*
X116150000Y-54528000D01*
X113550000Y-51868000D02*
X116150000Y-51868000D01*
X113550000Y-54528000D02*
X113550000Y-51868000D01*
X112280000Y-54528000D02*
X110950000Y-54528000D01*
X110950000Y-54528000D02*
X110950000Y-53198000D01*
X86530000Y-57700000D02*
X83870000Y-57700000D01*
X86530000Y-60300000D02*
X86530000Y-57700000D01*
X83870000Y-60300000D02*
X83870000Y-57700000D01*
X86530000Y-60300000D02*
X83870000Y-60300000D01*
X86530000Y-61570000D02*
X86530000Y-62900000D01*
X86530000Y-62900000D02*
X85200000Y-62900000D01*
X137840000Y-55220000D02*
X137840000Y-65380000D01*
X139110000Y-55220000D02*
X131490000Y-55220000D01*
X131490000Y-55220000D02*
X131490000Y-65380000D01*
X131490000Y-65380000D02*
X139110000Y-65380000D01*
X139110000Y-65380000D02*
X139110000Y-55220000D01*
X100954000Y-53198000D02*
G75*
G03*
X100954000Y-53198000I-2120000J0D01*
G01*
X98834000Y-55278000D02*
X98834000Y-51118000D01*
X98794000Y-55278000D02*
X98794000Y-51118000D01*
X98754000Y-55277000D02*
X98754000Y-51119000D01*
X98714000Y-55275000D02*
X98714000Y-51121000D01*
X98674000Y-55272000D02*
X98674000Y-51124000D01*
X98634000Y-55269000D02*
X98634000Y-54038000D01*
X98634000Y-52358000D02*
X98634000Y-51127000D01*
X98594000Y-55265000D02*
X98594000Y-54038000D01*
X98594000Y-52358000D02*
X98594000Y-51131000D01*
X98554000Y-55260000D02*
X98554000Y-54038000D01*
X98554000Y-52358000D02*
X98554000Y-51136000D01*
X98514000Y-55254000D02*
X98514000Y-54038000D01*
X98514000Y-52358000D02*
X98514000Y-51142000D01*
X98474000Y-55248000D02*
X98474000Y-54038000D01*
X98474000Y-52358000D02*
X98474000Y-51148000D01*
X98434000Y-55240000D02*
X98434000Y-54038000D01*
X98434000Y-52358000D02*
X98434000Y-51156000D01*
X98394000Y-55232000D02*
X98394000Y-54038000D01*
X98394000Y-52358000D02*
X98394000Y-51164000D01*
X98354000Y-55223000D02*
X98354000Y-54038000D01*
X98354000Y-52358000D02*
X98354000Y-51173000D01*
X98314000Y-55214000D02*
X98314000Y-54038000D01*
X98314000Y-52358000D02*
X98314000Y-51182000D01*
X98274000Y-55203000D02*
X98274000Y-54038000D01*
X98274000Y-52358000D02*
X98274000Y-51193000D01*
X98234000Y-55192000D02*
X98234000Y-54038000D01*
X98234000Y-52358000D02*
X98234000Y-51204000D01*
X98194000Y-55180000D02*
X98194000Y-54038000D01*
X98194000Y-52358000D02*
X98194000Y-51216000D01*
X98154000Y-55166000D02*
X98154000Y-54038000D01*
X98154000Y-52358000D02*
X98154000Y-51230000D01*
X98113000Y-55152000D02*
X98113000Y-54038000D01*
X98113000Y-52358000D02*
X98113000Y-51244000D01*
X98073000Y-55138000D02*
X98073000Y-54038000D01*
X98073000Y-52358000D02*
X98073000Y-51258000D01*
X98033000Y-55122000D02*
X98033000Y-54038000D01*
X98033000Y-52358000D02*
X98033000Y-51274000D01*
X97993000Y-55105000D02*
X97993000Y-54038000D01*
X97993000Y-52358000D02*
X97993000Y-51291000D01*
X97953000Y-55087000D02*
X97953000Y-54038000D01*
X97953000Y-52358000D02*
X97953000Y-51309000D01*
X97913000Y-55068000D02*
X97913000Y-54038000D01*
X97913000Y-52358000D02*
X97913000Y-51328000D01*
X97873000Y-55049000D02*
X97873000Y-54038000D01*
X97873000Y-52358000D02*
X97873000Y-51347000D01*
X97833000Y-55028000D02*
X97833000Y-54038000D01*
X97833000Y-52358000D02*
X97833000Y-51368000D01*
X97793000Y-55006000D02*
X97793000Y-54038000D01*
X97793000Y-52358000D02*
X97793000Y-51390000D01*
X97753000Y-54983000D02*
X97753000Y-54038000D01*
X97753000Y-52358000D02*
X97753000Y-51413000D01*
X97713000Y-54958000D02*
X97713000Y-54038000D01*
X97713000Y-52358000D02*
X97713000Y-51438000D01*
X97673000Y-54933000D02*
X97673000Y-54038000D01*
X97673000Y-52358000D02*
X97673000Y-51463000D01*
X97633000Y-54906000D02*
X97633000Y-54038000D01*
X97633000Y-52358000D02*
X97633000Y-51490000D01*
X97593000Y-54878000D02*
X97593000Y-54038000D01*
X97593000Y-52358000D02*
X97593000Y-51518000D01*
X97553000Y-54848000D02*
X97553000Y-54038000D01*
X97553000Y-52358000D02*
X97553000Y-51548000D01*
X97513000Y-54817000D02*
X97513000Y-54038000D01*
X97513000Y-52358000D02*
X97513000Y-51579000D01*
X97473000Y-54785000D02*
X97473000Y-54038000D01*
X97473000Y-52358000D02*
X97473000Y-51611000D01*
X97433000Y-54750000D02*
X97433000Y-54038000D01*
X97433000Y-52358000D02*
X97433000Y-51646000D01*
X97393000Y-54714000D02*
X97393000Y-54038000D01*
X97393000Y-52358000D02*
X97393000Y-51682000D01*
X97353000Y-54676000D02*
X97353000Y-54038000D01*
X97353000Y-52358000D02*
X97353000Y-51720000D01*
X97313000Y-54636000D02*
X97313000Y-54038000D01*
X97313000Y-52358000D02*
X97313000Y-51760000D01*
X97273000Y-54594000D02*
X97273000Y-54038000D01*
X97273000Y-52358000D02*
X97273000Y-51802000D01*
X97233000Y-54549000D02*
X97233000Y-54038000D01*
X97233000Y-52358000D02*
X97233000Y-51847000D01*
X97193000Y-54502000D02*
X97193000Y-54038000D01*
X97193000Y-52358000D02*
X97193000Y-51894000D01*
X97153000Y-54452000D02*
X97153000Y-54038000D01*
X97153000Y-52358000D02*
X97153000Y-51944000D01*
X97113000Y-54398000D02*
X97113000Y-54038000D01*
X97113000Y-52358000D02*
X97113000Y-51998000D01*
X97073000Y-54340000D02*
X97073000Y-54038000D01*
X97073000Y-52358000D02*
X97073000Y-52056000D01*
X97033000Y-54278000D02*
X97033000Y-54038000D01*
X97033000Y-52358000D02*
X97033000Y-52118000D01*
X96993000Y-54211000D02*
X96993000Y-52185000D01*
X96953000Y-54138000D02*
X96953000Y-52258000D01*
X96913000Y-54057000D02*
X96913000Y-52339000D01*
X96873000Y-53966000D02*
X96873000Y-52430000D01*
X96833000Y-53862000D02*
X96833000Y-52534000D01*
X96793000Y-53735000D02*
X96793000Y-52661000D01*
X96753000Y-53568000D02*
X96753000Y-52828000D01*
X101103801Y-54393000D02*
X100703801Y-54393000D01*
X100903801Y-54593000D02*
X100903801Y-54193000D01*
X93270000Y-59260000D02*
X93270000Y-63800000D01*
X91130000Y-59260000D02*
X91130000Y-63800000D01*
X93270000Y-59260000D02*
X93255000Y-59260000D01*
X91145000Y-59260000D02*
X91130000Y-59260000D01*
X93270000Y-63800000D02*
X93255000Y-63800000D01*
X91145000Y-63800000D02*
X91130000Y-63800000D01*
D10*
X121128571Y-76692857D02*
X120414285Y-77192857D01*
X121128571Y-77550000D02*
X119628571Y-77550000D01*
X119628571Y-76978571D01*
X119700000Y-76835714D01*
X119771428Y-76764285D01*
X119914285Y-76692857D01*
X120128571Y-76692857D01*
X120271428Y-76764285D01*
X120342857Y-76835714D01*
X120414285Y-76978571D01*
X120414285Y-77550000D01*
X119628571Y-76264285D02*
X121128571Y-75764285D01*
X119628571Y-75264285D01*
X121128571Y-73978571D02*
X121128571Y-74835714D01*
X121128571Y-74407142D02*
X119628571Y-74407142D01*
X119842857Y-74550000D01*
X119985714Y-74692857D01*
X120057142Y-74835714D01*
X101307142Y-55728571D02*
X101307142Y-56942857D01*
X101378571Y-57085714D01*
X101450000Y-57157142D01*
X101592857Y-57228571D01*
X101878571Y-57228571D01*
X102021428Y-57157142D01*
X102092857Y-57085714D01*
X102164285Y-56942857D01*
X102164285Y-55728571D01*
X103664285Y-57228571D02*
X102807142Y-57228571D01*
X103235714Y-57228571D02*
X103235714Y-55728571D01*
X103092857Y-55942857D01*
X102950000Y-56085714D01*
X102807142Y-56157142D01*
X123521428Y-72728571D02*
X124021428Y-74228571D01*
X124521428Y-72728571D01*
X125021428Y-73657142D02*
X126164285Y-73657142D01*
X119378571Y-44978571D02*
X119378571Y-43478571D01*
X119878571Y-43478571D02*
X120378571Y-44978571D01*
X120878571Y-43478571D01*
X121378571Y-44407142D02*
X122521428Y-44407142D01*
X121950000Y-44978571D02*
X121950000Y-43835714D01*
X102271428Y-44978571D02*
X102271428Y-43478571D01*
X102985714Y-44407142D02*
X104128571Y-44407142D01*
X108878571Y-64370000D02*
X108164285Y-64870000D01*
X108878571Y-65227142D02*
X107378571Y-65227142D01*
X107378571Y-64655714D01*
X107450000Y-64512857D01*
X107521428Y-64441428D01*
X107664285Y-64370000D01*
X107878571Y-64370000D01*
X108021428Y-64441428D01*
X108092857Y-64512857D01*
X108164285Y-64655714D01*
X108164285Y-65227142D01*
X107878571Y-63084285D02*
X108878571Y-63084285D01*
X107307142Y-63441428D02*
X108378571Y-63798571D01*
X108378571Y-62870000D01*
X120878571Y-64370000D02*
X120164285Y-64870000D01*
X120878571Y-65227142D02*
X119378571Y-65227142D01*
X119378571Y-64655714D01*
X119450000Y-64512857D01*
X119521428Y-64441428D01*
X119664285Y-64370000D01*
X119878571Y-64370000D01*
X120021428Y-64441428D01*
X120092857Y-64512857D01*
X120164285Y-64655714D01*
X120164285Y-65227142D01*
X119378571Y-63870000D02*
X119378571Y-62941428D01*
X119950000Y-63441428D01*
X119950000Y-63227142D01*
X120021428Y-63084285D01*
X120092857Y-63012857D01*
X120235714Y-62941428D01*
X120592857Y-62941428D01*
X120735714Y-63012857D01*
X120807142Y-63084285D01*
X120878571Y-63227142D01*
X120878571Y-63655714D01*
X120807142Y-63798571D01*
X120735714Y-63870000D01*
X112878571Y-64370000D02*
X112164285Y-64870000D01*
X112878571Y-65227142D02*
X111378571Y-65227142D01*
X111378571Y-64655714D01*
X111450000Y-64512857D01*
X111521428Y-64441428D01*
X111664285Y-64370000D01*
X111878571Y-64370000D01*
X112021428Y-64441428D01*
X112092857Y-64512857D01*
X112164285Y-64655714D01*
X112164285Y-65227142D01*
X111521428Y-63798571D02*
X111450000Y-63727142D01*
X111378571Y-63584285D01*
X111378571Y-63227142D01*
X111450000Y-63084285D01*
X111521428Y-63012857D01*
X111664285Y-62941428D01*
X111807142Y-62941428D01*
X112021428Y-63012857D01*
X112878571Y-63870000D01*
X112878571Y-62941428D01*
X116878571Y-64370000D02*
X116164285Y-64870000D01*
X116878571Y-65227142D02*
X115378571Y-65227142D01*
X115378571Y-64655714D01*
X115450000Y-64512857D01*
X115521428Y-64441428D01*
X115664285Y-64370000D01*
X115878571Y-64370000D01*
X116021428Y-64441428D01*
X116092857Y-64512857D01*
X116164285Y-64655714D01*
X116164285Y-65227142D01*
X116878571Y-62941428D02*
X116878571Y-63798571D01*
X116878571Y-63370000D02*
X115378571Y-63370000D01*
X115592857Y-63512857D01*
X115735714Y-63655714D01*
X115807142Y-63798571D01*
X112200000Y-48728571D02*
X112200000Y-49800000D01*
X112128571Y-50014285D01*
X111985714Y-50157142D01*
X111771428Y-50228571D01*
X111628571Y-50228571D01*
X112914285Y-50228571D02*
X112914285Y-48728571D01*
X113485714Y-48728571D01*
X113628571Y-48800000D01*
X113700000Y-48871428D01*
X113771428Y-49014285D01*
X113771428Y-49228571D01*
X113700000Y-49371428D01*
X113628571Y-49442857D01*
X113485714Y-49514285D01*
X112914285Y-49514285D01*
X115200000Y-50228571D02*
X114342857Y-50228571D01*
X114771428Y-50228571D02*
X114771428Y-48728571D01*
X114628571Y-48942857D01*
X114485714Y-49085714D01*
X114342857Y-49157142D01*
X81478571Y-62050000D02*
X82550000Y-62050000D01*
X82764285Y-62121428D01*
X82907142Y-62264285D01*
X82978571Y-62478571D01*
X82978571Y-62621428D01*
X81621428Y-61407142D02*
X81550000Y-61335714D01*
X81478571Y-61192857D01*
X81478571Y-60835714D01*
X81550000Y-60692857D01*
X81621428Y-60621428D01*
X81764285Y-60550000D01*
X81907142Y-60550000D01*
X82121428Y-60621428D01*
X82978571Y-61478571D01*
X82978571Y-60550000D01*
X129022571Y-60800000D02*
X130094000Y-60800000D01*
X130308285Y-60871428D01*
X130451142Y-61014285D01*
X130522571Y-61228571D01*
X130522571Y-61371428D01*
X130522571Y-59300000D02*
X130522571Y-60157142D01*
X130522571Y-59728571D02*
X129022571Y-59728571D01*
X129236857Y-59871428D01*
X129379714Y-60014285D01*
X129451142Y-60157142D01*
X134057142Y-50478571D02*
X134057142Y-48978571D01*
X134057142Y-49692857D02*
X134914285Y-49692857D01*
X134914285Y-50478571D02*
X134914285Y-48978571D01*
X136271428Y-49478571D02*
X136271428Y-50478571D01*
X135914285Y-48907142D02*
X135557142Y-49978571D01*
X136485714Y-49978571D01*
X84057142Y-50478571D02*
X84057142Y-48978571D01*
X84057142Y-49692857D02*
X84914285Y-49692857D01*
X84914285Y-50478571D02*
X84914285Y-48978571D01*
X85485714Y-48978571D02*
X86414285Y-48978571D01*
X85914285Y-49550000D01*
X86128571Y-49550000D01*
X86271428Y-49621428D01*
X86342857Y-49692857D01*
X86414285Y-49835714D01*
X86414285Y-50192857D01*
X86342857Y-50335714D01*
X86271428Y-50407142D01*
X86128571Y-50478571D01*
X85700000Y-50478571D01*
X85557142Y-50407142D01*
X85485714Y-50335714D01*
X134057142Y-71728571D02*
X134057142Y-70228571D01*
X134057142Y-70942857D02*
X134914285Y-70942857D01*
X134914285Y-71728571D02*
X134914285Y-70228571D01*
X135557142Y-70371428D02*
X135628571Y-70300000D01*
X135771428Y-70228571D01*
X136128571Y-70228571D01*
X136271428Y-70300000D01*
X136342857Y-70371428D01*
X136414285Y-70514285D01*
X136414285Y-70657142D01*
X136342857Y-70871428D01*
X135485714Y-71728571D01*
X136414285Y-71728571D01*
X84057142Y-71728571D02*
X84057142Y-70228571D01*
X84057142Y-70942857D02*
X84914285Y-70942857D01*
X84914285Y-71728571D02*
X84914285Y-70228571D01*
X86414285Y-71728571D02*
X85557142Y-71728571D01*
X85985714Y-71728571D02*
X85985714Y-70228571D01*
X85842857Y-70442857D01*
X85700000Y-70585714D01*
X85557142Y-70657142D01*
X98584000Y-50085714D02*
X98512571Y-50157142D01*
X98298285Y-50228571D01*
X98155428Y-50228571D01*
X97941142Y-50157142D01*
X97798285Y-50014285D01*
X97726857Y-49871428D01*
X97655428Y-49585714D01*
X97655428Y-49371428D01*
X97726857Y-49085714D01*
X97798285Y-48942857D01*
X97941142Y-48800000D01*
X98155428Y-48728571D01*
X98298285Y-48728571D01*
X98512571Y-48800000D01*
X98584000Y-48871428D01*
X99155428Y-48871428D02*
X99226857Y-48800000D01*
X99369714Y-48728571D01*
X99726857Y-48728571D01*
X99869714Y-48800000D01*
X99941142Y-48871428D01*
X100012571Y-49014285D01*
X100012571Y-49157142D01*
X99941142Y-49371428D01*
X99084000Y-50228571D01*
X100012571Y-50228571D01*
X90235714Y-61800000D02*
X90307142Y-61871428D01*
X90378571Y-62085714D01*
X90378571Y-62228571D01*
X90307142Y-62442857D01*
X90164285Y-62585714D01*
X90021428Y-62657142D01*
X89735714Y-62728571D01*
X89521428Y-62728571D01*
X89235714Y-62657142D01*
X89092857Y-62585714D01*
X88950000Y-62442857D01*
X88878571Y-62228571D01*
X88878571Y-62085714D01*
X88950000Y-61871428D01*
X89021428Y-61800000D01*
X90378571Y-60371428D02*
X90378571Y-61228571D01*
X90378571Y-60800000D02*
X88878571Y-60800000D01*
X89092857Y-60942857D01*
X89235714Y-61085714D01*
X89307142Y-61228571D01*
M02*
