G04 #@! TF.GenerationSoftware,KiCad,Pcbnew,(5.1.9)-1*
G04 #@! TF.CreationDate,2021-05-11T22:08:25+03:00*
G04 #@! TF.ProjectId,VariablePS,56617269-6162-46c6-9550-532e6b696361,1.0*
G04 #@! TF.SameCoordinates,Original*
G04 #@! TF.FileFunction,Soldermask,Top*
G04 #@! TF.FilePolarity,Negative*
%FSLAX46Y46*%
G04 Gerber Fmt 4.6, Leading zero omitted, Abs format (unit mm)*
G04 Created by KiCad (PCBNEW (5.1.9)-1) date 2021-05-11 22:08:25*
%MOMM*%
%LPD*%
G01*
G04 APERTURE LIST*
%ADD10C,2.442000*%
%ADD11O,2.007000X2.102000*%
%ADD12O,3.602000X3.602000*%
%ADD13C,2.102000*%
%ADD14O,1.702000X1.702000*%
%ADD15C,1.702000*%
%ADD16O,1.802000X1.802000*%
%ADD17C,3.102000*%
%ADD18C,5.702000*%
%ADD19C,1.302000*%
G04 APERTURE END LIST*
D10*
X111518000Y-76302000D03*
X114018000Y-72502000D03*
X116518000Y-76302000D03*
D11*
X97370000Y-59030000D03*
X99910000Y-59030000D03*
G36*
G01*
X103453500Y-58030000D02*
X103453500Y-60030000D01*
G75*
G02*
X103402500Y-60081000I-51000J0D01*
G01*
X101497500Y-60081000D01*
G75*
G02*
X101446500Y-60030000I0J51000D01*
G01*
X101446500Y-58030000D01*
G75*
G02*
X101497500Y-57979000I51000J0D01*
G01*
X103402500Y-57979000D01*
G75*
G02*
X103453500Y-58030000I0J-51000D01*
G01*
G37*
D12*
X99910000Y-75690000D03*
D13*
X124980000Y-76312000D03*
X124980000Y-44288000D03*
X99834000Y-44288000D03*
D14*
X108216000Y-59040000D03*
D15*
X108216000Y-69200000D03*
D14*
X120200000Y-69200000D03*
D15*
X120200000Y-59040000D03*
D14*
X112200000Y-69200000D03*
D15*
X112200000Y-59040000D03*
D14*
X116200000Y-69200000D03*
D15*
X116200000Y-59040000D03*
D16*
X114820000Y-53198000D03*
G36*
G01*
X113130000Y-54099000D02*
X111430000Y-54099000D01*
G75*
G02*
X111379000Y-54048000I0J51000D01*
G01*
X111379000Y-52348000D01*
G75*
G02*
X111430000Y-52297000I51000J0D01*
G01*
X113130000Y-52297000D01*
G75*
G02*
X113181000Y-52348000I0J-51000D01*
G01*
X113181000Y-54048000D01*
G75*
G02*
X113130000Y-54099000I-51000J0D01*
G01*
G37*
X85200000Y-59030000D03*
G36*
G01*
X86101000Y-60720000D02*
X86101000Y-62420000D01*
G75*
G02*
X86050000Y-62471000I-51000J0D01*
G01*
X84350000Y-62471000D01*
G75*
G02*
X84299000Y-62420000I0J51000D01*
G01*
X84299000Y-60720000D01*
G75*
G02*
X84350000Y-60669000I51000J0D01*
G01*
X86050000Y-60669000D01*
G75*
G02*
X86101000Y-60720000I0J-51000D01*
G01*
G37*
D17*
X135300000Y-57760000D03*
G36*
G01*
X136800000Y-64391000D02*
X133800000Y-64391000D01*
G75*
G02*
X133749000Y-64340000I0J51000D01*
G01*
X133749000Y-61340000D01*
G75*
G02*
X133800000Y-61289000I51000J0D01*
G01*
X136800000Y-61289000D01*
G75*
G02*
X136851000Y-61340000I0J-51000D01*
G01*
X136851000Y-64340000D01*
G75*
G02*
X136800000Y-64391000I-51000J0D01*
G01*
G37*
D18*
X135200000Y-45300000D03*
X85200000Y-45300000D03*
X135200000Y-75300000D03*
X85200000Y-75300000D03*
D19*
X97834000Y-53198000D03*
G36*
G01*
X100485000Y-52597999D02*
X100485000Y-53798001D01*
G75*
G02*
X100434001Y-53849000I-50999J0D01*
G01*
X99233999Y-53849000D01*
G75*
G02*
X99183000Y-53798001I0J50999D01*
G01*
X99183000Y-52597999D01*
G75*
G02*
X99233999Y-52547000I50999J0D01*
G01*
X100434001Y-52547000D01*
G75*
G02*
X100485000Y-52597999I0J-50999D01*
G01*
G37*
D15*
X92200000Y-64030000D03*
X92200000Y-59030000D03*
M02*
