M48
; DRILL file {KiCad (5.1.9)-1} date 05/11/21 22:08:31
; FORMAT={-:-/ absolute / metric / decimal}
; #@! TF.CreationDate,2021-05-11T22:08:31+03:00
; #@! TF.GenerationSoftware,Kicad,Pcbnew,(5.1.9)-1
; #@! TF.FileFunction,Plated,1,2,PTH
FMAT,2
METRIC
T1C0.600
T2C0.800
T3C1.000
T4C1.100
T5C1.300
T6C1.520
T7C3.200
%
G90
G05
T1
X97.834Y-53.198
X99.834Y-53.198
T2
X92.2Y-59.03
X92.2Y-64.03
X108.216Y-59.04
X108.216Y-69.2
X112.2Y-59.04
X112.2Y-69.2
X116.2Y-59.04
X116.2Y-69.2
X120.2Y-59.04
X120.2Y-69.2
T3
X85.2Y-59.03
X85.2Y-61.57
X99.834Y-44.288
X112.28Y-53.198
X114.82Y-53.198
X124.98Y-44.288
X124.98Y-76.312
T4
X97.37Y-59.03
X99.91Y-59.03
X102.45Y-59.03
T5
X111.518Y-76.302
X114.018Y-72.502
X116.518Y-76.302
T6
X135.3Y-57.76
X135.3Y-62.84
T7
X85.2Y-45.3
X85.2Y-75.3
X135.2Y-45.3
X135.2Y-75.3
T0
M30
